<?xml version="1.0" encoding="UTF-8"?>
<svg id="_Слой_2" data-name="Слой 2" xmlns="http://www.w3.org/2000/svg" viewBox="0 0 229.16 280.61">
  <defs>
    <style>
      .cls-1 {
        stroke: #000;
        stroke-miterlimit: 10;
      }

      .cls-2 {
        font-family: AgencyFB-Bold, 'Agency FB';
        font-size: 48px;
        font-weight: 700;
      }
    </style>
  </defs>
  <g id="_Слой_1-2" data-name="Слой 1">
    <g>
      <polygon class="cls-1" points="95.58 65.6 89.24 76.45 82.92 65.6 95.58 65.6"/>
      <polygon class="cls-1" points="82.92 65.6 70.24 65.6 76.58 54.75 82.92 65.6"/>
      <polygon class="cls-1" points="70.24 87.3 57.58 87.3 63.92 76.45 70.24 87.3"/>
      <polygon class="cls-1" points="101.92 54.75 95.58 65.6 82.92 65.6 76.58 54.75 82.92 43.9 95.58 43.9 101.92 54.75"/>
      <polygon class="cls-1" points="89.24 76.45 82.92 87.3 70.24 87.3 63.92 76.45 70.24 65.6 82.92 65.6 89.24 76.45"/>
      <polygon class="cls-1" points="152.58 54.75 146.24 65.6 133.58 65.6 127.24 54.75 133.58 43.9 146.24 43.9 152.58 54.75"/>
      <polygon class="cls-1" points="158.92 65.6 146.24 65.6 152.58 54.75 158.92 65.6"/>
      <polygon class="cls-1" points="215.92 206.65 209.58 217.5 196.92 217.5 190.58 206.65 184.24 217.5 171.58 217.5 165.24 206.65 158.92 217.5 146.24 217.5 139.92 206.65 133.58 217.5 120.92 217.5 114.58 206.65 108.24 217.5 95.58 217.5 89.24 206.65 82.92 217.5 70.24 217.5 63.92 206.65 57.58 217.5 44.92 217.5 38.58 206.65 32.24 217.5 19.58 217.5 13.24 206.65 19.58 195.8 209.58 195.8 215.92 206.65"/>
      <polygon class="cls-1" points="222.24 174.1 209.58 174.1 215.92 163.25 222.24 174.1"/>
      <polygon class="cls-1" points="222.24 195.8 215.92 206.65 209.58 195.8 222.24 195.8"/>
      <polygon class="cls-1" points="196.92 217.5 184.24 217.5 190.58 206.65 196.92 217.5"/>
      <polygon class="cls-1" points="44.92 217.5 32.24 217.5 38.58 206.65 44.92 217.5"/>
      <polygon class="cls-1" points="32.24 195.8 19.58 195.8 25.92 184.95 32.24 195.8"/>
      <polygon class="cls-1" points="32.24 174.1 25.92 184.95 19.58 174.1 32.24 174.1"/>
      <polygon class="cls-1" points="44.92 152.4 38.58 163.25 32.24 152.4 44.92 152.4"/>
      <polygon class="cls-1" points="57.58 130.7 51.24 141.55 44.92 130.7 57.58 130.7"/>
      <polygon class="cls-1" points="70.24 109 63.92 119.85 57.58 109 70.24 109"/>
      <polygon class="cls-1" points="82.92 87.3 76.58 98.15 70.24 87.3 82.92 87.3"/>
      <polygon class="cls-1" points="209.58 174.1 203.24 184.95 196.92 174.1 209.58 174.1"/>
      <polygon class="cls-1" points="209.58 195.8 196.92 195.8 203.24 184.95 209.58 195.8"/>
      <polygon class="cls-1" points="19.58 174.1 6.92 174.1 13.24 163.25 19.58 174.1"/>
      <polygon class="cls-1" points="171.58 217.5 158.92 217.5 165.24 206.65 171.58 217.5"/>
      <polygon class="cls-1" points="146.24 217.5 133.58 217.5 139.92 206.65 146.24 217.5"/>
      <polygon class="cls-1" points="120.92 217.5 108.24 217.5 114.58 206.65 120.92 217.5"/>
      <polygon class="cls-1" points="95.58 217.5 82.92 217.5 89.24 206.65 95.58 217.5"/>
      <polygon class="cls-1" points="70.24 217.5 57.58 217.5 63.92 206.65 70.24 217.5"/>
      <polygon class="cls-1" points="19.58 195.8 13.24 206.65 6.92 195.8 19.58 195.8"/>
      <polygon class="cls-1" points="228.58 184.95 222.24 195.8 209.58 195.8 203.24 184.95 209.58 174.1 222.24 174.1 228.58 184.95"/>
      <polygon class="cls-1" points="25.92 184.95 19.58 195.8 6.92 195.8 .58 184.95 6.92 174.1 19.58 174.1 25.92 184.95"/>
      <polygon class="cls-1" points="38.58 163.25 32.24 174.1 19.58 174.1 13.24 163.25 19.58 152.4 32.24 152.4 38.58 163.25"/>
      <polygon class="cls-1" points="215.92 163.25 209.58 174.1 196.92 174.1 190.58 163.25 196.92 152.4 209.58 152.4 215.92 163.25"/>
      <polygon class="cls-1" points="120.92 152.4 114.58 163.25 108.24 152.4 120.92 152.4"/>
      <polygon class="cls-1" points="120.92 174.1 108.24 174.1 114.58 163.25 120.92 174.1"/>
      <polygon class="cls-1" points="133.58 130.7 127.24 141.55 120.92 130.7 133.58 130.7"/>
      <polygon class="cls-1" points="146.24 109 139.92 119.85 133.58 109 146.24 109"/>
      <polygon class="cls-1" points="158.92 87.3 152.58 98.15 146.24 87.3 158.92 87.3"/>
      <polygon class="cls-1" points="32.24 152.4 19.58 152.4 25.92 141.55 32.24 152.4"/>
      <polygon class="cls-1" points="196.92 152.4 190.58 163.25 184.24 152.4 196.92 152.4"/>
      <polygon class="cls-1" points="209.58 152.4 196.92 152.4 203.24 141.55 209.58 152.4"/>
      <polygon class="cls-1" points="51.24 141.55 44.92 152.4 32.24 152.4 25.92 141.55 32.24 130.7 44.92 130.7 51.24 141.55"/>
      <polygon class="cls-1" points="203.24 141.55 196.92 152.4 184.24 152.4 177.92 141.55 184.24 130.7 196.92 130.7 203.24 141.55"/>
      <polygon class="cls-1" points="133.58 152.4 120.92 152.4 127.24 141.55 133.58 152.4"/>
      <polygon class="cls-1" points="184.24 130.7 177.92 141.55 171.58 130.7 184.24 130.7"/>
      <polygon class="cls-1" points="196.92 130.7 184.24 130.7 190.58 119.85 196.92 130.7"/>
      <polygon class="cls-1" points="108.24 130.7 101.92 141.55 95.58 130.7 108.24 130.7"/>
      <polygon class="cls-1" points="108.24 152.4 95.58 152.4 101.92 141.55 108.24 152.4"/>
      <polygon class="cls-1" points="146.24 65.6 139.92 76.45 133.58 65.6 146.24 65.6"/>
      <polygon class="cls-1" points="44.92 130.7 32.24 130.7 38.58 119.85 44.92 130.7"/>
      <polygon class="cls-1" points="63.92 119.85 57.58 130.7 44.92 130.7 38.58 119.85 44.92 109 57.58 109 63.92 119.85"/>
      <polygon class="cls-1" points="190.58 119.85 184.24 130.7 171.58 130.7 165.24 119.85 171.58 109 184.24 109 190.58 119.85"/>
      <polygon class="cls-1" points="120.92 109 114.58 119.85 108.24 109 120.92 109"/>
      <polygon class="cls-1" points="120.92 130.7 108.24 130.7 114.58 119.85 120.92 130.7"/>
      <polygon class="cls-1" points="133.58 87.3 127.24 98.15 120.92 87.3 133.58 87.3"/>
      <polygon class="cls-1" points="95.58 109 89.24 119.85 82.92 109 95.58 109"/>
      <polygon class="cls-1" points="95.58 130.7 82.92 130.7 89.24 119.85 95.58 130.7"/>
      <polygon class="cls-1" points="57.58 109 44.92 109 51.24 98.15 57.58 109"/>
      <polygon class="cls-1" points="146.24 130.7 133.58 130.7 139.92 119.85 146.24 130.7"/>
      <polygon class="cls-1" points="171.58 109 165.24 119.85 158.92 109 171.58 109"/>
      <polygon class="cls-1" points="184.24 109 171.58 109 177.92 98.15 184.24 109"/>
      <polygon class="cls-1" points="76.58 98.15 70.24 109 57.58 109 51.24 98.15 57.58 87.3 70.24 87.3 76.58 98.15"/>
      <polygon class="cls-1" points="177.92 98.15 171.58 109 158.92 109 152.58 98.15 158.92 87.3 171.58 87.3 177.92 98.15"/>
      <polygon class="cls-1" points="108.24 87.3 101.92 98.15 95.58 87.3 108.24 87.3"/>
      <polygon class="cls-1" points="108.24 109 95.58 109 101.92 98.15 108.24 109"/>
      <polygon class="cls-1" points="171.58 87.3 158.92 87.3 165.24 76.45 171.58 87.3"/>
      <polygon class="cls-1" points="133.58 109 120.92 109 127.24 98.15 133.58 109"/>
      <polygon class="cls-1" points="165.24 76.45 158.92 87.3 146.24 87.3 139.92 76.45 146.24 65.6 158.92 65.6 165.24 76.45"/>
      <polygon class="cls-1" points="120.92 87.3 108.24 87.3 114.58 76.45 120.92 87.3"/>
      <polygon class="cls-1" points="120.92 65.6 114.58 76.45 108.24 65.6 120.92 65.6"/>
      <polygon class="cls-1" points="127.24 11.35 120.92 22.2 108.24 22.2 101.92 11.35 108.24 .5 120.92 .5 127.24 11.35"/>
      <polygon class="cls-1" points="114.58 33.05 108.24 43.9 95.58 43.9 89.24 33.05 95.58 22.2 108.24 22.2 114.58 33.05"/>
      <polygon class="cls-1" points="139.92 33.05 133.58 43.9 120.92 43.9 114.58 33.05 120.92 22.2 133.58 22.2 139.92 33.05"/>
      <polygon class="cls-1" points="108.24 43.9 101.92 54.75 95.58 43.9 108.24 43.9"/>
      <polygon class="cls-1" points="120.92 43.9 108.24 43.9 114.58 33.05 120.92 43.9"/>
      <polygon class="cls-1" points="133.58 43.9 127.24 54.75 120.92 43.9 133.58 43.9"/>
      <polygon class="cls-1" points="95.58 43.9 82.92 43.9 89.24 33.05 95.58 43.9"/>
      <polygon class="cls-1" points="108.24 22.2 95.58 22.2 101.92 11.35 108.24 22.2"/>
      <polygon class="cls-1" points="133.58 22.2 120.92 22.2 127.24 11.35 133.58 22.2"/>
      <polygon class="cls-1" points="146.24 43.9 133.58 43.9 139.92 33.05 146.24 43.9"/>
      <polygon class="cls-1" points="120.92 22.2 114.58 33.05 108.24 22.2 120.92 22.2"/>
      <text class="cls-2" transform="translate(32.58 271)"><tspan x="0" y="0">KG Insider</tspan></text>
    </g>
  </g>
</svg>